# xmcd CD database file
#
# Track frame offsets:
#	180
#	15540
#	31392
#	46470
#	62692
#	68672
#	88000
#	94322
#	108635
#	112975
#	134742
#	145062
#	162195
#	172247
#	177132
#	180042
#
# Disc length: 2787 seconds
#
# Revision: 2
# Processed by: cddbd v1.4PL0 Copyright (c) Steve Scherf et al.
# Submitted via: CDex 1.40Beta5
#
DISCID=d70ae110
DTITLE=El Fish - Wisteria
DYEAR=2000
DGENRE=Blues
TTITLE0=Strange Situation
TTITLE1=Black Olives
TTITLE2=Lucky
TTITLE3=Sonny Boy's Advice
TTITLE4=(Jan)
TTITLE5=Lack Of Time
TTITLE6=(Filip)
TTITLE7=Annie One
TTITLE8=(Stevo)
TTITLE9=Another Sign
TTITLE10=Waitin'
TTITLE11=7 Cigarettes
TTITLE12=Pussy Arrête
TTITLE13=(Rohal)
TTITLE14=(JMX)
TTITLE15=The Ticket Man
EXTD=YEAR: 2000 ID3G:   0
EXTT0=
EXTT1=
EXTT2=
EXTT3=
EXTT4=
EXTT5=
EXTT6=
EXTT7=
EXTT8=
EXTT9=
EXTT10=
EXTT11=
EXTT12=
EXTT13=
EXTT14=
EXTT15=
PLAYORDER=
